<!-- icon666.com - MILLIONS OF FREE VECTOR ICONS --><svg id="Layer_1" viewBox="0 0 300 300" xmlns="http://www.w3.org/2000/svg" data-name="Layer 1"><path d="m295.61 274.49-35.9-35.89a21.44 21.44 0 0 0 -6.91-4.6l-4.33-1.81a21.44 21.44 0 0 1 -6.91-4.64l-19.35-19.34a2 2 0 0 1 -.11-2.69 125 125 0 0 0 28.84-83.17c-1.6-64.45-56.85-120.16-121.25-122.28a125.61 125.61 0 0 0 -129.62 129.63c2.12 64.36 57.8 119.6 122.18 121.23a124.93 124.93 0 0 0 83.12-28.75 2 2 0 0 1 2.69.12l19.36 19.35a21.57 21.57 0 0 1 4.63 6.92l1.82 4.33a21.52 21.52 0 0 0 4.63 6.91l35.59 35.59a15.27 15.27 0 0 0 21 .8 15 15 0 0 0 .52-21.71zm-170.12-43.49a105.49 105.49 0 1 1 105.51-105.51 105.6 105.6 0 0 1 -105.51 105.51z" fill="rgb(0,0,0)"></path></svg>