<!-- icon666.com - MILLIONS OF FREE VECTOR ICONS --><svg id="Layer_1" viewBox="0 0 512 512" xmlns="http://www.w3.org/2000/svg" xmlns:xlink="http://www.w3.org/1999/xlink" data-name="Layer 1"><linearGradient id="linear-gradient" gradientUnits="userSpaceOnUse" x1="-45.124" x2="326.125" y1="441.624" y2="70.375"><stop offset="0" stop-color="#0a75a1"></stop><stop offset=".156" stop-color="#096b9f"></stop><stop offset=".425" stop-color="#074f99"></stop><stop offset=".773" stop-color="#04218f"></stop><stop offset="1" stop-color="#020088"></stop></linearGradient><path d="m25 504.5a17.5 17.5 0 0 1 -16.407-23.587l72-194.085a17.5 17.5 0 0 1 13.361-11.145l110-19.446-109.92-18.906a17.5 17.5 0 0 1 -13.451-11.187l-72-195.085a17.5 17.5 0 0 1 24.243-21.711l462 231a17.5 17.5 0 0 1 0 31.3l-462 231a17.464 17.464 0 0 1 -7.826 1.852z" fill="url(#linear-gradient)"></path></svg>