<!-- icon666.com - MILLIONS OF FREE VECTOR ICONS --><svg viewBox="0 0 32 32" xmlns="http://www.w3.org/2000/svg" xmlns:xlink="http://www.w3.org/1999/xlink"><linearGradient id="linear-gradient" gradientUnits="userSpaceOnUse" x1=".11" x2="32.36" y1="-.3" y2="31.51"><stop offset="0" stop-color="#29abe2"></stop><stop offset="1" stop-color="#2e3192"></stop></linearGradient><g id="Left"><path d="m15 26a1 1 0 0 1 -.6-.2l-12-9a1 1 0 0 1 0-1.6l12-9a1 1 0 0 1 1-.09 1 1 0 0 1 .6.89v5h10a4 4 0 0 1 0 8h-10v5a1 1 0 0 1 -.55.89.91.91 0 0 1 -.45.11zm-10.33-10 9.33 7v-4a1 1 0 0 1 1-1h11a2 2 0 0 0 0-4h-11a1 1 0 0 1 -1-1v-4z" fill="url(#linear-gradient)"></path></g></svg>